# xmcd
#
# Track frame offsets:
#	150
#	16637
#	37489
#	52329
#	72738
#	82287
#	97403
#	114496
#	126323
#	144784
#	160238
#	171817
#	190213
#	207972
#	224305
#	248056
#	262933
#	282467
#	302590
#	320068
#
# Disc length: 4466 seconds
#
# Revision: 0
# Processed by: cddbd v1.4PL0 Copyright (c) Steve Scherf et al.
# Submitted via: dBpowerAMP V4.0
#
DISCID=3c117014
DTITLE=pistuk - karnaval 2002
DYEAR=1900
DGENRE=
TTITLE0=kapuara del brazil
TTITLE1=honda honda
TTITLE2=yo yo yaya
TTITLE3=carnaval
TTITLE4=bomba
TTITLE5=pe perere
TTITLE6=pizi bom
TTITLE7=taradinka
TTITLE8=harmonia
TTITLE9=bata late
TTITLE10=skakshuka
TTITLE11=me gustas tu
TTITLE12=chocolate
TTITLE13=lana lana
TTITLE14=bacilos
TTITLE15=suerte
TTITLE16=to came
TTITLE17=besame
TTITLE18=fruta frescu
TTITLE19=afrodisia
EXTD=carbaval 2002
EXTT0=
EXTT1=
EXTT2=
EXTT3=
EXTT4=
EXTT5=
EXTT6=
EXTT7=
EXTT8=
EXTT9=
EXTT10=
EXTT11=
EXTT12=
EXTT13=
EXTT14=
EXTT15=
EXTT16=
EXTT17=
EXTT18=
EXTT19=
PLAYORDER=
